# xmcd
#
# Track frame offsets: 
#        183
#        17233
#        38458
#        62320
#        79470
#        97783
#        116533
#        141433
#        164220
#        187708
#        204908
#        218895
#        229258
#        247808
#
# Disc length: 3688 seconds
#
# Revision: 3
# Processed by: cddbd v1.5.2PL0 Copyright (c) Steve Scherf et al.
# Submitted via: ExactAudioCopyFreeDBPlugin 1.0
#
DISCID=b30e660e
DTITLE=Dave Hole - Short Fuse Blues
DYEAR=2004
DGENRE=Blues
TTITLE0=Keep Your Motor Runnin'
TTITLE1=The Bottle
TTITLE2=Short Fuse Blues
TTITLE3=Every Girl I See
TTITLE4=Truckload Of Lovin'
TTITLE5=Albatross
TTITLE6=Night Cat
TTITLE7=Tore Down
TTITLE8=The Sun Is Shining
TTITLE9=Purple Haze
TTITLE10=Travelling Riverside Blues
TTITLE11=Dark Was The Night (Cold Was The Ground)
TTITLE12=Business Man
TTITLE13=Take A Swing
EXTD=Release year: 2004\nRelease country: RU\nRelease label: Irond Ltd
EXTD=\nRelease catalog#: IROND CD 04-DD204\nTotal playing time: 01:01
EXTD=:25
EXTT0=
EXTT1=
EXTT2=
EXTT3=
EXTT4=
EXTT5=
EXTT6=
EXTT7=
EXTT8=
EXTT9=
EXTT10=
EXTT11=
EXTT12=
EXTT13=
PLAYORDER=
